/* XPM */
static char * blue_xpm[] = {
"20 20 78 1",
" 	c None",
".	c #FFFFFF",
"+	c #F4F6FE",
"@	c #CED9FD",
"#	c #9BB0FB",
"$	c #708BFA",
"%	c #5775F9",
"&	c #5770FA",
"*	c #6E7DFB",
"=	c #99A0FC",
"-	c #CED0FE",
";	c #F4F5FF",
">	c #E9EEFE",
",	c #A2B7FB",
"'	c #4C74F8",
")	c #184BF4",
"!	c #0940F4",
"~	c #083EF3",
"{	c #0739E7",
"]	c #062FD2",
"^	c #0B28BA",
"/	c #3045C4",
"(	c #929DED",
"_	c #E9EAFF",
":	c #2E5DF7",
"<	c #0840F6",
"[	c #0635D2",
"}	c #031A8C",
"|	c #112298",
"1	c #8596DD",
"2	c #537AF8",
"3	c #052CAA",
"4	c #010E51",
"5	c #1F368D",
"6	c #BCC7EC",
"7	c #2657F7",
"8	c #0738D8",
"9	c #03185C",
"0	c #030D47",
"a	c #6883B6",
"b	c #89A4FA",
"c	c #0E45F6",
"d	c #073EEF",
"e	c #031E74",
"f	c #00021D",
"g	c #355782",
"h	c #000006",
"i	c #254968",
"j	c #000106",
"k	c #2C5563",
"l	c #010C30",
"m	c #010A17",
"n	c #508075",
"o	c #2055E9",
"p	c #0635CD",
"q	c #00020A",
"r	c #0F3130",
"s	c #9EC4AC",
"t	c #94B0EF",
"u	c #2158CD",
"v	c #073BDA",
"w	c #000515",
"x	c #041A17",
"y	c #5B9070",
"z	c #E9F4EB",
"A	c #ACC7DD",
"B	c #3E76A0",
"C	c #0D3F89",
"D	c #04287D",
"E	c #03195E",
"F	c #010E32",
"G	c #021419",
"H	c #133F28",
"I	c #5F976D",
"J	c #D4E9D7",
"K	c #A5CCAA",
"L	c #639D6B",
"M	c #46844F",
"....................",
"....................",
"....................",
"....+@#$%&*=-;......",
"...>,')!~{]^/(_.....",
"..+,:<<<<<<[}|1;....",
"..@2<<<<<<<<3456....",
"..,7<<<<<<<<890a....",
"..bc<<<<<<<<defg....",
"..bc<<<<<<<<dehi....",
"..,7<<<<<<<<89jk....",
"..@2<<<<<<<<3lmn....",
"..+,o<<<<<<p9qrs....",
"...>tuvdd839wxyz....",
"....+ABCDEFGHIJ.....",
"......zKLMMLKz......",
"....................",
"....................",
"....................",
"...................."};
