/* XPM */
static char * green_xpm[] = {
"20 20 39 1",
" 	c None",
".	c #FFFFFF",
"+	c #F4FEF4",
"@	c #CFFCD0",
"#	c #A3FAA5",
"$	c #8BF98D",
"%	c #E9FEEA",
"&	c #4EF452",
"*	c #1DEF22",
"=	c #0DF112",
"-	c #0CF011",
";	c #12E617",
">	c #25D92B",
",	c #6BDB70",
"'	c #D5F4D8",
")	c #2CF230",
"!	c #0BF410",
"~	c #0DD812",
"{	c #41BD48",
"]	c #CBE9CE",
"^	c #09B50E",
"/	c #51AE59",
"(	c #E9F4EB",
"_	c #09D60E",
":	c #138B19",
"<	c #A5CCAA",
"[	c #0AED0F",
"}	c #07830B",
"|	c #639D6B",
"1	c #057608",
"2	c #46844F",
"3	c #045F06",
"4	c #07A90B",
"5	c #054708",
"6	c #09CB0D",
"7	c #045B06",
"8	c #17541E",
"9	c #073A0C",
"0	c #D4E9D7",
"....................",
"....................",
"....................",
".....+@#$$#@+.......",
"....%#&*=-;>,'......",
"...+#)!!!!!!~{].....",
"...@&!!!!!!!!^/(....",
"...#*!!!!!!!!_:<....",
"...$=!!!!!!!![}|....",
"...$-!!!!!!!![12....",
"...#;!!!!!!!!_32....",
"...@>!!!!!!!!45|....",
"...+,~!!!!!!678<....",
"....'{^_[[_479|(....",
".....]/:}1358|0.....",
"......(<|22|<(......",
"....................",
"....................",
"....................",
"...................."};
