/* XPM */
static char * red_xpm[] = {
"20 20 50 1",
" 	c #FFFFFF",
".	c #FFF4F4",
"+	c #FECECE",
"@	c #FDA0A0",
"#	c #FD8787",
"$	c #FFE9E9",
"%	c #FC5050",
"&	c #FB2222",
"*	c #FB0A0A",
"=	c #FC2D2D",
"-	c #FB0303",
";	c #F32424",
">	c #F79999",
",	c #DF3333",
"'	c #EDBCBC",
")	c #FA2020",
"!	c #E20808",
"~	c #C26464",
"{	c #F4F4F4",
"]	c #FA0909",
"^	c #F40303",
"/	c #A02A2A",
"(	c #CDCDCD",
"_	c #F80707",
":	c #871212",
"<	c #9F9F9F",
"[	c #ED1313",
"}	c #DC0303",
"|	c #630505",
"1	c #868686",
"2	c #D72B2B",
"3	c #AE0202",
"4	c #370606",
"5	c #D70808",
"6	c #D20303",
"7	c #5E0101",
"8	c #281E1E",
"9	c #D1BCBC",
"0	c #8F3232",
"a	c #160000",
"b	c #4E4E4E",
"c	c #A39898",
"d	c #532222",
"e	c #770101",
"f	c #310101",
"g	c #0B0000",
"h	c #2A2A2A",
"i	c #E9E9E9",
"j	c #1F1F1F",
"k	c #070707",
"                    ",
"    .+@##@+.        ",
"   $@%&**&%@$       ",
"  .@=------;>.      ",
"  +%--------,'      ",
"  @)--------!~{     ",
"  #]--------^/(     ",
"  #_--------^:<     ",
"  @[--------}|1     ",
"  +2--------341     ",
"  .~5------678<     ",
"   903}^^}37ab(     ",
"   {cd7ee7fgh<{     ",
"    i<bjkkjb<i      ",
"     {(<11<({       ",
"                    ",
"                    ",
"                    ",
"                    ",
"                    "};
